<?xml version="1.0" encoding="utf-8"?>
<!-- Generator: Adobe Illustrator 21.0.0, SVG Export Plug-In . SVG Version: 6.00 Build 0)  -->
<svg version="1.1" xmlns="http://www.w3.org/2000/svg" xmlns:xlink="http://www.w3.org/1999/xlink" x="0px" y="0px"
	 viewBox="0 0 1417.3 841.9" style="enable-background:new 0 0 1417.3 841.9;" xml:space="preserve">
<style type="text/css">
	.st0{fill:#00AEEF;stroke:#F1F2F2;stroke-miterlimit:10;}
	.st1{display:none;}
	.st2{display:inline;fill:#06222C;stroke:#2E3192;stroke-miterlimit:10;}
	.st3{display:inline;fill:#00AEEF;stroke:#F1F2F2;stroke-miterlimit:10;}
	.st4{display:inline;fill:#00AEEF;stroke:#000000;stroke-miterlimit:10;}
</style>
<g id="Layer_1">
	<path class="st0" d="M122.2,502.2V353.4h1012.5v129.9c0,0-85.5-42.7-121.5,13.5c-36,56.2-70.1-86.3-124.3-20.3
		s-87.4-71.7-133.8-8.1c-46.4,63.6-91-79.7-139.2-18.9s-92.2-71.7-132.4,5.4s-49.6-52.6-89.2,1.4s-86.6-21.6-101.4,16.2
		c-14.7,37.8-48.4-36.4-67.6,10.8S154.2,467,122.2,502.2z"/>
</g>
<g id="Layer_3" class="st1">
	<path class="st2" d="M121.6,794.3V645.5h1012.5v129.9c0,0-85.5-42.7-121.5,13.5c-36,56.2-70.1-86.3-124.3-20.3
		s-87.4-71.7-133.8-8.1c-46.4,63.6-91-79.7-139.2-18.9s-92.2-71.7-132.4,5.4s-49.6-52.6-89.2,1.4c-39.6,54-86.6-21.6-101.4,16.2
		c-14.7,37.8-48.4-36.4-67.6,10.8C205.6,822.7,153.6,759.2,121.6,794.3z"/>
	<path class="st3" d="M122.7,790.8V641.9h1012.5v129.9c0,0-85.5-42.7-121.5,13.5c-36,56.2-70.1-86.3-124.3-20.3
		s-87.4-71.7-133.8-8.1c-46.4,63.6-91-79.7-139.2-18.9c-48.2,60.7-92.2-71.7-132.4,5.4s-49.6-52.6-89.2,1.4
		c-39.6,54-86.6-21.6-101.4,16.2s-48.4-36.4-67.6,10.8S154.7,755.6,122.7,790.8z"/>
</g>
<g id="Layer_2" class="st1">
	<path class="st4" d="M147.6,225.8V77h1012.5v129.9c0,0-36.4-52.7-121.5,13.5c-12.2-1.4-58.1-32.4-124.3-20.3
		c-24.3-9.5-52.7-73.1-133.8-8.1c-18.9-6.8-68.9-70.3-139.2-18.9c-17.6-6.8-67.6-63.5-132.4,5.4c-10.8-5.4-35.1-45.9-89.2,1.4
		c-9.5,0-73-32.4-101.4,16.2c-12.2,0-55.4-18.9-67.6,10.8C238.6,210.9,179.6,190.7,147.6,225.8z"/>
</g>
</svg>
